<svg width="32" height="32" viewBox="0 0 32 32" fill="none" xmlns="http://www.w3.org/2000/svg">
<path fill-rule="evenodd" clip-rule="evenodd" d="M8.398 26.201C8.398 26.8733 7.86013 27.4 7.199 27.4C6.53787 27.4 6 26.8509 6 26.201V7.62211C6 6.6024 6.47064 6.03092 7.28864 5.66113C8.24112 5.22411 9.09275 5 10.7512 5C12.777 5 14.5285 5.52293 16.2625 6.04065C17.9622 6.54814 19.6452 7.05063 21.5534 7.05063C22.5814 7.05063 23.3488 6.90172 23.9512 6.78484C24.3402 6.70935 24.6604 6.64722 24.9375 6.64722C25.7891 6.64722 26.4054 7.2075 26.4054 8.04792V19.0294C26.4054 20.0827 25.9572 20.7775 25.128 21.1585C24.2539 21.5731 23.3463 21.8084 21.643 21.8084C19.6792 21.8084 17.9875 21.3001 16.2888 20.7896C14.5756 20.2748 12.8551 19.7578 10.8408 19.7578C9.67635 19.7578 8.85916 20.0086 8.47877 20.1254C8.44919 20.1344 8.42225 20.1427 8.398 20.15V26.201ZM16.6691 18.3944C18.2975 18.8835 19.8646 19.3542 21.5764 19.3542C22.9099 19.3542 23.6831 18.9956 23.9072 18.7043V9.21311C23.2797 9.3812 22.4505 9.48205 21.4756 9.48205C19.4391 9.48205 17.6785 8.95352 15.9498 8.43458C14.2827 7.93414 12.6454 7.44263 10.819 7.44263C9.48558 7.44263 8.7236 7.82362 8.48828 8.10376V17.6285C9.04856 17.4268 9.9338 17.3148 10.9087 17.3148C13.0746 17.3148 14.9078 17.8654 16.6691 18.3944Z" fill="#E0E0FF" fill-opacity="0.4"/>
</svg>
