<svg width="96" height="96" viewBox="0 0 96 96" fill="none" xmlns="http://www.w3.org/2000/svg">
<rect width="96" height="96" rx="12" fill="#5D2DE1" fill-opacity="0.03"/>
<path fill-rule="evenodd" clip-rule="evenodd" d="M79.7207 64.2266C79.7207 68.2578 77.2832 70.5547 73.0879 70.5547H67.6035C63.4082 70.5547 60.9941 68.2578 60.9941 64.2266V32C60.9941 27.9922 63.4082 25.6719 67.6035 25.6719H73.0879C77.2832 25.6719 79.7207 27.9922 79.7207 32V64.2266ZM68.4473 65.7969H72.2441C73.9082 65.7969 74.6113 65.1172 74.6113 63.5V32.75C74.6113 31.1328 73.9082 30.4297 72.2676 30.4297H68.4473C66.8066 30.4297 66.1035 31.1328 66.1035 32.75V63.5C66.1035 65.1172 66.8066 65.7969 68.4473 65.7969ZM50.8926 70.5547C55.0879 70.5547 57.5254 68.2578 57.5254 64.2266V38.8203C57.5254 34.8125 55.0879 32.5156 50.8926 32.5156H45.4082C41.1895 32.5156 38.7754 34.8125 38.7754 38.8438V64.2266C38.7754 68.2578 41.1895 70.5547 45.4082 70.5547H50.8926ZM46.252 65.7969H50.0488C51.6895 65.7969 52.3926 65.1172 52.3926 63.5V39.5703C52.3926 37.9531 51.6895 37.25 50.0488 37.25H46.252C44.6113 37.25 43.9082 37.9531 43.9082 39.5703V63.5C43.9082 65.1172 44.6113 65.7969 46.252 65.7969ZM28.6738 70.5547C32.8926 70.5547 35.3066 68.2578 35.3066 64.2266V45.6875C35.3066 41.6797 32.8926 39.3828 28.6738 39.3828H23.2129C18.9941 39.3828 16.5801 41.6797 16.5801 45.7109V64.2266C16.5801 68.2578 18.9941 70.5547 23.2129 70.5547H28.6738ZM24.0566 65.7969H27.8301C29.4941 65.7969 30.1973 65.1172 30.1973 63.5V46.4375C30.1973 44.8203 29.4941 44.1172 27.8535 44.1172H24.0566C22.416 44.1172 21.6895 44.8203 21.6895 46.4375V63.5C21.6895 65.1172 22.416 65.7969 24.0566 65.7969Z" fill="#5D2DE1"/>
</svg>
