<svg width="96" height="96" viewBox="0 0 96 96" fill="none" xmlns="http://www.w3.org/2000/svg">
<rect width="96" height="96" rx="12" fill="#4579F5" fill-opacity="0.03"/>
<path fill-rule="evenodd" clip-rule="evenodd" d="M62.1445 70.2734C67.3711 70.2734 70.1602 67.4844 70.1602 62.3281V33.875C70.1602 28.7188 67.3711 25.9531 62.1445 25.9531H33.832C28.6289 25.9531 25.8398 28.7188 25.8398 33.875V62.3281C25.8398 67.5078 28.6289 70.2734 33.832 70.2734H62.1445ZM61.6758 64.9062H34.3242C32.2852 64.9062 31.207 63.875 31.207 61.7422V34.4609C31.207 32.3281 32.2852 31.3203 34.3242 31.3203H61.6758C63.668 31.3203 64.793 32.3281 64.793 34.4609V61.7422C64.793 63.875 63.668 64.9062 61.6758 64.9062ZM41.9368 45.6261C41.7591 45.7279 41.5841 45.8281 41.4258 45.8281C41.2383 45.8281 41.0039 45.7109 40.793 45.5703C39.082 44.4219 35.5664 41.8672 35.5664 38.6797C35.5664 36.6875 36.9492 35.2578 38.7305 35.2578C39.9727 35.2578 40.8867 35.9844 41.4023 36.9219C41.918 35.9844 42.8555 35.2578 44.0508 35.2578C45.8789 35.2578 47.2617 36.6875 47.2617 38.6797C47.2617 41.8672 43.7461 44.5625 42.0352 45.5703C42.0024 45.5885 41.9697 45.6073 41.937 45.626L41.9368 45.6261ZM58.9102 52.5078C59.7773 52.5078 60.4336 51.8281 60.4336 50.9609C60.4336 50.1406 59.7773 49.4844 58.9102 49.4844H37.1133C36.1992 49.4844 35.5664 50.1406 35.5664 50.9609C35.5664 51.8281 36.1992 52.5078 37.1133 52.5078H58.9102ZM54.8789 58.4609C54.8789 59.3047 54.2227 59.9609 53.3555 59.9609H37.1133C36.1992 59.9609 35.5664 59.3047 35.5664 58.4609C35.5664 57.5938 36.1992 56.9141 37.1133 56.9141H53.3555C54.2227 56.9141 54.8789 57.5938 54.8789 58.4609Z" fill="#4579F5"/>
</svg>
