<svg width="96" height="96" viewBox="0 0 96 96" fill="none" xmlns="http://www.w3.org/2000/svg">
<rect width="96" height="96" rx="12" fill="#9C42F5" fill-opacity="0.03"/>
<path fill-rule="evenodd" clip-rule="evenodd" d="M63.0417 45.4374L43.0833 70.7083C41.5417 72.6666 39.0417 71.3958 39.9375 68.9999L46.0625 52.5416H34.0417C33.0833 52.5416 32.375 51.8749 32.375 50.9583C32.375 50.4374 32.5833 49.9791 32.9583 49.4999L52.9167 24.2083C54.4583 22.2499 56.9375 23.5208 56.0625 25.9166L49.9375 42.3958H61.9583C62.9167 42.3958 63.625 43.0624 63.625 43.9791C63.625 44.4791 63.4167 44.9374 63.0417 45.4374ZM51.625 48.9583L46.0625 60.9374L57.4167 45.9791H44.375L49.9167 33.9791L38.5833 48.9583H51.625Z" fill="#9C42F5"/>
</svg>
