<svg width="96" height="96" viewBox="0 0 96 96" fill="none" xmlns="http://www.w3.org/2000/svg">
<rect width="96" height="96" rx="12" fill="#FF00AA" fill-opacity="0.03"/>
<path fill-rule="evenodd" clip-rule="evenodd" d="M58.5938 60.9453C58.5938 62 57.8672 62.7266 56.7891 62.7266H39.1875C38.1328 62.7266 37.3828 62 37.3828 60.9453V57.4766C37.3828 55.0769 35.8851 53.0674 34.157 50.7488C31.8006 47.587 29.0156 43.8504 29.0156 37.7656C29.0156 26.5859 36.6562 19.0391 48 19.0391C59.3203 19.0391 66.9609 26.5859 66.9609 37.7656C66.9609 43.8504 64.176 47.587 61.8195 50.7488C60.0914 53.0674 58.5938 55.0769 58.5938 57.4766V60.9453ZM41.9531 58.25H54.0469V57.3125C54.0469 53.8267 55.9376 51.2249 57.9164 48.5019C60.0887 45.5127 62.3672 42.3773 62.3672 37.7656C62.3672 29.2812 56.625 23.6562 48 23.6562C39.375 23.6562 33.6328 29.2812 33.6328 37.7656C33.6328 42.3773 35.9113 45.5127 38.0836 48.5019C40.0624 51.2249 41.9531 53.8267 41.9531 57.3125V58.25ZM56.2734 69.4297C57.6094 69.4297 58.6875 68.3281 58.6875 67.0156C58.6875 65.7031 57.6094 64.6016 56.2734 64.6016H39.7266C38.3906 64.6016 37.3125 65.7031 37.3125 67.0156C37.3125 68.3281 38.3906 69.4297 39.7266 69.4297H56.2734ZM54.4219 71.3047C54.1641 73.8125 51.5859 75.5 48 75.5C44.3672 75.5 41.8125 73.8125 41.5781 71.3047H54.4219Z" fill="#FF00AA"/>
</svg>
