<svg width="20" height="20" viewBox="0 0 20 20" fill="none" xmlns="http://www.w3.org/2000/svg">
<path d="M11.1364 15.423C11.3447 15.423 11.5465 15.3384 11.7223 15.1626L15.9932 10.9048C16.1559 10.742 16.2536 10.5142 16.2536 10.2863C16.2536 10.0584 16.1559 9.82406 15.9932 9.66781L11.7354 5.40999C11.5531 5.2277 11.3447 5.14307 11.1364 5.14307C10.6546 5.14307 10.3161 5.48812 10.3161 5.93734C10.3161 6.18473 10.4202 6.38005 10.57 6.5363L12.0479 8.02067L13.695 9.53109L12.2301 9.45296H4.60645C4.09212 9.45296 3.74707 9.7915 3.74707 10.2863C3.74707 10.7811 4.09212 11.1196 4.60645 11.1196H12.2301L13.695 11.035L12.0479 12.5519L10.57 14.0298C10.4202 14.186 10.3161 14.3813 10.3161 14.6287C10.3161 15.0845 10.6546 15.423 11.1364 15.423Z" fill="white"/>
</svg>
