<svg width="20" height="20" viewBox="0 0 20 20" fill="none" xmlns="http://www.w3.org/2000/svg">
<path d="M9.99707 6.70117C10.291 6.70117 10.5439 6.81738 10.7695 7.04297L15.8896 12.293C16.0674 12.4707 16.1631 12.6895 16.1631 12.9492C16.1631 13.4824 15.7393 13.9062 15.2129 13.9062C14.9531 13.9062 14.707 13.8037 14.5156 13.6123L10.0039 8.96387L5.48535 13.6123C5.29395 13.7969 5.05469 13.9062 4.78809 13.9062C4.26172 13.9062 3.83789 13.4824 3.83789 12.9492C3.83789 12.6895 3.93359 12.4707 4.11133 12.2861L9.23145 7.04297C9.4707 6.81055 9.70996 6.70117 9.99707 6.70117Z" fill="white"/>
</svg>
