<svg width="20" height="20" viewBox="0 0 20 20" fill="none" xmlns="http://www.w3.org/2000/svg">
<path d="M8.86426 15.423C9.34603 15.423 9.68457 15.0845 9.68457 14.6287C9.68457 14.3813 9.5804 14.186 9.43066 14.0298L7.95931 12.5519L6.30566 11.035L7.77051 11.1196H15.4007C15.9085 11.1196 16.2536 10.7811 16.2536 10.2863C16.2536 9.7915 15.9085 9.45296 15.4007 9.45296H7.77051L6.30566 9.53109L7.95931 8.02067L9.43066 6.5363C9.58691 6.38005 9.68457 6.18473 9.68457 5.93734C9.68457 5.48812 9.34603 5.14307 8.86426 5.14307C8.65592 5.14307 8.4541 5.2277 8.2653 5.40999L4.00749 9.66781C3.84473 9.82406 3.74707 10.0584 3.74707 10.2863C3.74707 10.5142 3.84473 10.742 4.00749 10.9048L8.27832 15.1626C8.4541 15.3384 8.65592 15.423 8.86426 15.423Z" fill="white"/>
</svg>
