<svg width="16" height="16" viewBox="0 0 16 16" fill="none" xmlns="http://www.w3.org/2000/svg">
<path d="M7.99728 13.2688C8.18868 13.2688 8.38556 13.1922 8.51681 13.05L12.0988 9.46797C12.2465 9.32031 12.3176 9.14531 12.3176 8.96484C12.3176 8.56563 12.0332 8.28125 11.6504 8.28125C11.4426 8.28125 11.2731 8.36875 11.1473 8.5L9.9004 9.73594L8.65353 11.1523L8.69728 9.96563V3.56172C8.69728 3.12969 8.4129 2.83984 7.99728 2.83984C7.58165 2.83984 7.29728 3.12969 7.29728 3.56172V9.96563L7.3465 11.1523L6.09415 9.73594L4.85275 8.5C4.7215 8.36875 4.55743 8.28125 4.34962 8.28125C3.96681 8.28125 3.68243 8.56563 3.68243 8.96484C3.68243 9.14531 3.75353 9.32031 3.90118 9.46797L7.47775 13.05C7.61447 13.1922 7.80587 13.2688 7.99728 13.2688Z" fill="#E0E0FF"/>
</svg>
