<svg width="20" height="20" viewBox="0 0 20 20" fill="none" xmlns="http://www.w3.org/2000/svg">
<path d="M9.99707 13.9062C10.291 13.9062 10.5439 13.79 10.7695 13.5645L15.8896 8.31445C16.0674 8.13672 16.1631 7.91797 16.1631 7.6582C16.1631 7.125 15.7393 6.70117 15.2129 6.70117C14.9531 6.70117 14.707 6.80371 14.5156 6.99512L10.0039 11.6436L5.48535 6.99512C5.29395 6.81055 5.05469 6.70117 4.78809 6.70117C4.26172 6.70117 3.83789 7.125 3.83789 7.6582C3.83789 7.91797 3.93359 8.13672 4.11133 8.32129L9.23145 13.5645C9.4707 13.7969 9.70996 13.9062 9.99707 13.9062Z" fill="#E0E0FF" fill-opacity="0.6"/>
</svg>
