<svg width="24" height="24" viewBox="0 0 24 24" fill="none" xmlns="http://www.w3.org/2000/svg">
<path fill-rule="evenodd" clip-rule="evenodd" d="M16.668 19.7578C18.2539 19.7578 19.1758 18.8281 19.1758 17.1094V9.03906C19.1758 7.3125 18.2461 6.39062 16.5117 6.39062H15.5195C15.4883 4.54688 13.9414 3.05469 12.0039 3.05469C10.0664 3.05469 8.51172 4.54688 8.48047 6.39062H7.48828C5.75391 6.39062 4.82422 7.3125 4.82422 9.03906V17.1094C4.82422 18.8359 5.75391 19.7578 7.48828 19.7578H16.668ZM10.1758 6.39062C10.1992 5.38281 10.957 4.58594 12.0039 4.58594C13.0508 4.58594 13.8008 5.38281 13.832 6.39062H10.1758ZM7.65234 17.9688H16.5117C17.0195 17.9688 17.3945 17.625 17.3945 16.9141V9.23438C17.3945 8.52344 17.0195 8.17969 16.3477 8.17969H7.65234C6.97266 8.17969 6.61328 8.52344 6.61328 9.23438V16.9141C6.61328 17.625 6.97266 17.9688 7.65234 17.9688Z" fill="currentColor"/>
</svg>
