<svg width="20" height="20" viewBox="0 0 20 20" fill="none" xmlns="http://www.w3.org/2000/svg">
<rect width="20" height="20" rx="10" fill="#F3BA2F"/>
<path fill-rule="evenodd" clip-rule="evenodd" d="M7.08731 8.80313L10.0003 5.89023L12.9149 8.80467L14.6099 7.10967L10.0003 2.5L5.39232 7.10813L7.08731 8.80313ZM4.19505 8.30469L5.89002 9.99965L4.19497 11.6947L2.5 9.99974L4.19505 8.30469ZM10.0009 14.1096L7.08785 11.1967L5.39036 12.8895L5.39273 12.8918L10.0009 17.4999L14.6104 12.8903L14.6112 12.8894L12.9153 11.1953L10.0009 14.1096ZM17.4997 10.0005L15.8047 11.6955L14.1097 10.0006L15.8048 8.30552L17.4997 10.0005ZM11.7198 9.99905H11.7191L11.7207 9.99988L11.7198 10.0008L9.99986 11.7208L8.2814 10.0024L8.27903 9.99988L8.2814 9.99751L8.58268 9.69623L8.72864 9.55015H8.72876L9.99986 8.27905L11.7198 9.99905Z" fill="white"/>
</svg>
