<svg width="24" height="24" viewBox="0 0 24 24" fill="none" xmlns="http://www.w3.org/2000/svg">
<path  d="M17.6406 11.5391L10.1562 21.0156C9.57812 21.75 8.64062 21.2735 8.97656 20.375L11.2734 14.2031H6.76562C6.40625 14.2031 6.14062 13.9531 6.14062 13.6094C6.14062 13.4141 6.21875 13.2422 6.35938 13.0625L13.8438 3.57814C14.4219 2.84377 15.3516 3.32033 15.0234 4.21877L12.7266 10.3985H17.2344C17.5938 10.3985 17.8594 10.6485 17.8594 10.9922C17.8594 11.1797 17.7812 11.3516 17.6406 11.5391ZM13.3594 12.8594L11.2734 17.3516L15.5312 11.7422H10.6406L12.7188 7.24221L8.46875 12.8594H13.3594Z" fill="currentColor"/>
</svg>
