<svg width="32" height="32" viewBox="0 0 32 32" fill="none" xmlns="http://www.w3.org/2000/svg">
<path fill-rule="evenodd" clip-rule="evenodd" d="M24.5156 25.7812C26.6198 25.7812 27.8594 24.552 27.8594 22.2499V10.7291C27.8594 8.43742 26.6198 7.20825 24.3073 7.20825H7.48438C5.38021 7.20825 4.14062 8.43742 4.14062 10.7291V22.2499C4.14062 24.552 5.38021 25.7812 7.69271 25.7812H24.5156ZM16.0155 17.3124C15.6405 17.3124 15.3072 17.1353 14.8801 16.7186L7.53636 9.46865C7.60927 9.45823 7.68219 9.45823 7.75511 9.45823H24.2447C24.328 9.45823 24.4009 9.45823 24.4843 9.46865L17.1405 16.7186C16.7134 17.1353 16.3801 17.3124 16.0155 17.3124ZM6.35938 11.0832V21.7916L11.776 16.4166L6.35938 11.0832ZM25.6407 21.7605L20.2449 16.4168L25.6407 11.1043V21.7605ZM7.75511 23.5311H24.2447C24.3593 23.5311 24.4739 23.5207 24.578 23.5103L18.828 17.802L18.3489 18.2811C17.578 19.0416 16.8176 19.3749 16.0155 19.3749C15.203 19.3749 14.4426 19.0416 13.6718 18.2811L13.1926 17.8124L7.44261 23.5103C7.53636 23.5207 7.64052 23.5311 7.75511 23.5311Z" fill="currentColor"/>
</svg>
