<svg width="24" height="24" viewBox="0 0 24 24" fill="none" xmlns="http://www.w3.org/2000/svg">
<path fill-rule="evenodd" clip-rule="evenodd" d="M12.648 21.1664L20.7116 13.0945C21.3761 12.4301 21.4499 12.0363 21.4499 11.0601V7.95115C21.4499 7.02419 21.2284 6.67966 20.5394 5.9906L18.6691 4.12029C17.9718 3.42302 17.6355 3.20154 16.7085 3.20154H13.5995C12.6234 3.20154 12.2378 3.29177 11.5733 3.95623L3.50147 12.0199C2.23819 13.275 2.22179 14.6367 3.50147 15.9164L8.75968 21.1664C10.0394 22.4379 11.3929 22.4297 12.648 21.1664ZM11.4915 19.739C10.9747 20.2558 10.4497 20.264 9.91646 19.739L4.92896 14.7515C4.39576 14.2183 4.41216 13.6851 4.92076 13.1765L12.8778 5.23586C13.0419 5.0718 13.1895 4.98157 13.4438 4.98157H16.6512C16.8891 4.98157 17.0614 5.0718 17.2172 5.22766L19.4321 7.4425C19.5879 7.59836 19.67 7.76243 19.67 8.00032V11.2159C19.67 11.4866 19.5961 11.6343 19.4321 11.7902L11.4915 19.739ZM16.8646 9.00935C16.8646 9.69021 16.3396 10.2234 15.6506 10.2234C14.9533 10.2234 14.4365 9.69021 14.4365 9.00935C14.4365 8.32849 14.9533 7.79529 15.6506 7.79529C16.3396 7.79529 16.8646 8.32849 16.8646 9.00935Z" fill="currentColor"/>
</svg>
