<svg width="24" height="24" viewBox="0 0 24 24" fill="none" xmlns="http://www.w3.org/2000/svg">
<path fill-rule="evenodd" clip-rule="evenodd" d="M12.648 21.1665L20.7116 13.0946C21.3761 12.4302 21.4499 12.0364 21.4499 11.0603V7.95127C21.4499 7.02432 21.2284 6.67979 20.5394 5.99072L18.6691 4.12041C17.9718 3.42314 17.6355 3.20166 16.7085 3.20166H13.5995C12.6234 3.20166 12.2378 3.29189 11.5733 3.95635L3.50147 12.02C2.23819 13.2751 2.22179 14.6368 3.50147 15.9165L8.75968 21.1665C10.0394 22.438 11.3929 22.4298 12.648 21.1665ZM11.4915 19.7391C10.9747 20.2559 10.4497 20.2641 9.91646 19.7391L4.92896 14.7516C4.39576 14.2184 4.41216 13.6852 4.92076 13.1766L12.8778 5.23599C13.0419 5.07192 13.1895 4.98169 13.4438 4.98169H16.6512C16.8891 4.98169 17.0614 5.07192 17.2172 5.22778L19.4321 7.44263C19.5879 7.59849 19.67 7.76255 19.67 8.00044V11.2161C19.67 11.4868 19.5961 11.6344 19.4321 11.7903L11.4915 19.7391ZM16.8646 9.00947C16.8646 9.69033 16.3396 10.2235 15.6506 10.2235C14.9533 10.2235 14.4365 9.69033 14.4365 9.00947C14.4365 8.32861 14.9533 7.79541 15.6506 7.79541C16.3396 7.79541 16.8646 8.32861 16.8646 9.00947Z" fill="currentColor" fill-opacity="0.4"/>
</svg>
