<svg width="20" height="20" viewBox="0 0 20 20" fill="none" xmlns="http://www.w3.org/2000/svg">
<g id="check">
<path id="shape" d="M8.59473 16.21C9.00488 16.21 9.32617 16.0459 9.55176 15.7109L15.9502 5.83984C16.1143 5.59375 16.1826 5.36816 16.1826 5.15625C16.1826 4.5957 15.7725 4.19238 15.1982 4.19238C14.8018 4.19238 14.5625 4.3291 14.3232 4.71191L8.56738 13.8174L5.62793 10.1123C5.39551 9.83203 5.15625 9.70215 4.81445 9.70215C4.2334 9.70215 3.81641 10.1123 3.81641 10.6797C3.81641 10.9258 3.89844 11.1582 4.11035 11.4043L7.64453 15.7451C7.91113 16.0664 8.20508 16.21 8.59473 16.21Z" fill="white"/>
</g>
</svg>
