<svg width="20" height="20" viewBox="0 0 20 20" fill="none" xmlns="http://www.w3.org/2000/svg">
<path d="M8.59216 16C9.00343 16 9.3256 15.8362 9.5518 15.5017L15.9677 5.64505C16.1322 5.39932 16.2008 5.17406 16.2008 4.96246C16.2008 4.40273 15.7895 4 15.2137 4C14.8161 4 14.5762 4.13652 14.3363 4.51877L8.56474 13.6109L5.61725 9.91126C5.3842 9.6314 5.14429 9.50171 4.80156 9.50171C4.21891 9.50171 3.80078 9.91126 3.80078 10.4778C3.80078 10.7235 3.88304 10.9556 4.09553 11.2014L7.63937 15.5358C7.9067 15.8567 8.20144 16 8.59216 16Z" fill="url(#paint0_linear_946_8716)"/>
<defs>
<linearGradient id="paint0_linear_946_8716" x1="-2.39922" y1="10" x2="9.59433" y2="22.3933" gradientUnits="userSpaceOnUse">
<stop stop-color="#FF00AA"/>
<stop offset="0.501768" stop-color="#9C42F5"/>
<stop offset="1" stop-color="#5D2DE1"/>
</linearGradient>
</defs>
</svg>
