<svg width="136" height="24" viewBox="0 0 136 24" fill="none" xmlns="http://www.w3.org/2000/svg">
<path d="M38.2848 10.2852V23.9995H34.7949V-0.000112534H38.2848V5.14281H40.0299V6.85703H41.7744V8.57126H43.5193V10.2852H45.2643V11.9994H47.0092V13.7142H48.7542V-0.000112534H52.2436V23.9995H48.7542V18.8566H47.0092V17.1426H45.2643V15.4281H43.5193V13.7142H41.7744V11.9994H40.0299V10.2852H38.2848Z" fill="#EDEDED"/>
<path d="M59.2236 24V20.5713H62.7133V3.42856H59.2236V0.000375748H69.6931V3.42856H66.2032V20.5713H69.6931V24H59.2236Z" fill="#EDEDED"/>
<path d="M94.1215 -0.000112534V3.42807H80.1627V10.2852H90.6319V13.7142H80.1627V23.9995H76.6729V-0.000112534H94.1215Z" fill="#EDEDED"/>
<path d="M104.593 3.42856H97.6123V0.000375748H115.061V3.42856H108.082V24H104.593V3.42856Z" fill="#EDEDED"/>
<path d="M134.256 3.42856H136V6.85726H132.511V5.1433H130.766V3.42856H123.786V5.1433H122.042V8.57148H123.786V10.2857H132.511V11.9999H134.256V13.7147H136V20.5713H134.256V22.2858H132.511V24H122.042V22.2858H120.297V20.5713H118.552V17.1429H122.042V18.8571H123.786V20.5713H130.766V18.8571H132.511V15.4286H130.766V13.7147H122.042V11.9999H120.297V10.2857H118.552V3.42856H120.297V1.71434H122.042V0.000375748H132.511V1.71434H134.256V3.42856Z" fill="#EDEDED"/>
<path d="M28.3915 10.3813H30.6744V9.68086H28.3915V7.823H29.7672V7.12281H28.3915V5.08013H29.1267V4.37968H28.3915V3.46339H29.706V2.07267H28.0627V0.000259399H3.63442V0.686369H2.34518V1.38682H3.63442V2.07267H5.27763V3.46339H3.96317V4.72977H1.71289V5.43022H3.96317V11.4822H5.27763V12.4683H3.49539V13.1688H5.27763V14.1552H4.12741V15.5297H5.27763V17.4322H2.83816V18.1326H5.27763V19.1701H3.85863V19.8706H5.27763V21.4101H4.6204V22.0048H2.83816V22.7049H4.6204V24H29.0487V21.4101H29.706V15.5297H28.5557V15.1927H29.706V14.4922H28.5557V14.1552H29.706V11.4822H28.3915V10.3813Z" fill="#00E9EA"/>
<path d="M0 5.42969H1.14172V4.72924H0V5.42969Z" fill="#00E9EA"/>
<path d="M30.2676 15.1926H31.1586V14.4922H30.2676V15.1926Z" fill="#00E9EA"/>
<path d="M29.8213 23.0547H30.7123V22.3542H29.8213V23.0547Z" fill="#00E9EA"/>
<path d="M30.4225 10.3813H32.7057V9.68086H30.4225V7.823H31.7985V7.12281H30.4225V5.08013H31.1577V4.37968H30.4225V3.46339H31.7372V2.07267H30.094V0.000259399H5.66567V0.686369H4.37616V1.38682H5.66567V2.07267H7.30888V3.46339H5.99415V4.72977H3.74414V5.43022H5.99415V11.4822H7.30888V12.4683H5.52637V13.1688H7.30888V14.1552H6.1584V15.5297H7.30888V17.4322H4.86915V18.1326H7.30888V19.1701H5.88961V19.8706H7.30888V21.4101H6.65138V22.0048H4.86915V22.7049H6.65138V24H31.08V21.4101H31.7372V15.5297H30.587V15.1927H31.7372V14.4922H30.587V14.1552H31.7372V11.4822H30.4225V10.3813Z" fill="#FF4164"/>
<path d="M32.2988 15.1926H33.1898V14.4922H32.2988V15.1926Z" fill="#FF4164"/>
<path d="M31.8535 23.0547H32.7445V22.3542H31.8535V23.0547Z" fill="#FF4164"/>
<path d="M5.26298 21.4099V22.0045H3.48074V22.7049H5.26298V24H29.6913V21.4099H30.3485V15.5295H29.1983V15.1924H30.3485V14.492H29.1983V14.1549H30.3485V11.4822H29.0341V10.381H31.317V9.68086H29.0341V7.82273H30.4098V7.12255H29.0341V5.07986H29.7693V4.37942H29.0341V3.46339H30.3485V2.07266H28.7053V-1.90735e-06H4.277V0.686108H2.98775V1.38655H4.277V2.07266H5.9202V3.46339H4.60548V4.72977H2.35547V5.42996H4.60548V11.4822H5.9202V12.4683H4.13797V13.1688H5.9202V14.1549H4.76999V15.5295H5.9202V17.4322H3.48074V18.1326H5.9202V19.1701H4.50094V19.8703H5.9202V21.4099H5.26298Z" fill="#EDEDED"/>
<path d="M0.643555 5.42944H1.78528V4.72899H0.643555V5.42944Z" fill="#EDEDED"/>
<path d="M30.9111 15.1926H31.8021V14.4922H30.9111V15.1926Z" fill="#EDEDED"/>
<path d="M30.4639 23.0547H31.3549V22.3542H30.4639V23.0547Z" fill="#EDEDED"/>
<path d="M6.30191 6.88817H3.03223V7.58862H6.30191V6.88817Z" fill="#0B0B0B"/>
<path d="M9.0014 8.43187H5.73145V9.13232H9.0014V8.43187Z" fill="#0B0B0B"/>
<path d="M26.3742 16.0691H24.7393V16.7695H26.3742V16.0691Z" fill="#0B0B0B"/>
<path d="M28.8586 16.0691H27.2236V16.7695H28.8586V16.0691Z" fill="#0B0B0B"/>
<path d="M28.041 5.59252H26.4062V6.29297H28.041V5.59252Z" fill="#0B0B0B"/>
<path d="M9.09494 2.43334H7.45996V3.13379H9.09494V2.43334Z" fill="#0B0B0B"/>
<path d="M11.7785 2.43334H10.1436V3.13379H11.7785V2.43334Z" fill="#0B0B0B"/>
<path d="M13.1078 2.43334H12.6123V3.13379H13.1078V2.43334Z" fill="#0B0B0B"/>
<path d="M24.4612 5.59252H23.9219V6.29297H24.4612V5.59252Z" fill="#0B0B0B"/>
<path d="M22.7776 5.59252H22.2383V6.29297H22.7776V5.59252Z" fill="#0B0B0B"/>
<path d="M10.0064 16.0691H6.54883V16.7695H10.0064V16.0691Z" fill="#0B0B0B"/>
<path d="M32.4029 18.1907H28.9453V18.8911H32.4029V18.1907Z" fill="#0B0B0B"/>
<path d="M25.2836 18.1907H24.9482V18.8911H25.2836V18.1907Z" fill="#0B0B0B"/>
<path d="M23.8952 18.1907H23.5596V18.8911H23.8952V18.1907Z" fill="#0B0B0B"/>
<path d="M8.27688 20.2058H4.81934V20.9062H8.27688V20.2058Z" fill="#0B0B0B"/>
<path d="M32.4029 19.8552H28.9453V20.5557H32.4029V19.8552Z" fill="#0B0B0B"/>
</svg>
