<svg width="20" height="20" viewBox="0 0 20 20" fill="none" xmlns="http://www.w3.org/2000/svg">
<path d="M15.0648 15.3775C15.3968 15.039 15.3968 14.4856 15.0713 14.1601L11.2236 10.3124L15.0713 6.45826C15.3968 6.13274 15.4033 5.57284 15.0648 5.24081C14.7327 4.90878 14.1729 4.90878 13.8473 5.2343L9.99967 9.08196L6.14551 5.2343C5.83301 4.91529 5.26009 4.90227 4.92806 5.24081C4.59603 5.57284 4.60254 6.14576 4.92155 6.45826L8.76921 10.3124L4.92155 14.1601C4.60254 14.4791 4.59603 15.0455 4.92806 15.3775C5.2666 15.7096 5.83301 15.703 6.14551 15.3905L9.99967 11.5364L13.8473 15.384C14.1729 15.7096 14.7327 15.7096 15.0648 15.3775Z" fill="white"/>
</svg>
