<svg width="24" height="24" viewBox="0 0 24 24" fill="none" xmlns="http://www.w3.org/2000/svg">
<path fill-rule="evenodd" clip-rule="evenodd" d="M18.9308 5.64356C17.6561 5.05866 16.2892 4.62773 14.8599 4.38092C14.8339 4.37615 14.8079 4.38806 14.7945 4.41187C14.6187 4.72455 14.4239 5.13246 14.2876 5.45308C12.7503 5.22294 11.221 5.22294 9.71527 5.45308C9.57887 5.12533 9.37707 4.72455 9.20048 4.41187C9.18707 4.38885 9.16107 4.37695 9.13504 4.38092C7.70659 4.62694 6.33963 5.05787 5.06411 5.64356C5.05307 5.64832 5.04361 5.65626 5.03732 5.66657C2.44449 9.54021 1.73421 13.3186 2.08265 17.0502C2.08423 17.0685 2.09447 17.0859 2.10867 17.097C3.81934 18.3533 5.47642 19.116 7.10273 19.6215C7.12876 19.6294 7.15634 19.6199 7.1729 19.5985C7.55761 19.0731 7.90054 18.5192 8.19456 17.9367C8.21192 17.9025 8.19535 17.8621 8.15989 17.8486C7.61594 17.6422 7.098 17.3907 6.59977 17.105C6.56037 17.082 6.55721 17.0256 6.59346 16.9986C6.69831 16.92 6.80318 16.8383 6.9033 16.7558C6.92141 16.7407 6.94665 16.7375 6.96794 16.747C10.2411 18.2414 13.7846 18.2414 17.0191 16.747C17.0404 16.7367 17.0657 16.7399 17.0846 16.755C17.1847 16.8375 17.2895 16.92 17.3952 16.9986C17.4314 17.0256 17.4291 17.082 17.3897 17.105C16.8914 17.3962 16.3735 17.6422 15.8288 17.8478C15.7933 17.8613 15.7775 17.9025 15.7949 17.9367C16.0952 18.5184 16.4381 19.0723 16.8157 19.5977C16.8315 19.6199 16.8599 19.6294 16.8859 19.6215C18.5201 19.116 20.1772 18.3533 21.8879 17.097C21.9028 17.0859 21.9123 17.0693 21.9139 17.051C22.3309 12.7369 21.2154 8.98945 18.9568 5.66736C18.9513 5.65626 18.9419 5.64832 18.9308 5.64356ZM8.68315 14.7781C7.69771 14.7781 6.88574 13.8734 6.88574 12.7624C6.88574 11.6513 7.68197 10.7466 8.68315 10.7466C9.69219 10.7466 10.4963 11.6592 10.4805 12.7624C10.4805 13.8734 9.68431 14.7781 8.68315 14.7781ZM13.5312 12.7624C13.5312 13.8734 14.3432 14.7781 15.3286 14.7781C16.3377 14.7781 17.126 13.8734 17.126 12.7624C17.1418 11.6592 16.3377 10.7466 15.3286 10.7466C14.3274 10.7466 13.5312 11.6513 13.5312 12.7624Z" fill="currentColor"/>
</svg>
