<svg width="20" height="20" viewBox="0 0 20 20" fill="none" xmlns="http://www.w3.org/2000/svg">
<path fill-rule="evenodd" clip-rule="evenodd" d="M5.18652 16.1689C5.59668 16.1689 5.9248 15.8545 5.9248 15.4648V13.5371C6.58789 13.25 7.05273 12.5869 7.05273 11.8213C7.05273 11.0625 6.58789 10.3994 5.9248 10.1123V4.13086C5.9248 3.7207 5.58984 3.39941 5.18652 3.39941C4.79004 3.39941 4.44824 3.72754 4.44824 4.13086V10.1123C3.78516 10.3994 3.32031 11.0557 3.32031 11.8213C3.32031 12.5869 3.78516 13.25 4.44824 13.5371V15.4648C4.44824 15.8545 4.79004 16.1689 5.18652 16.1689ZM10.7373 15.4443C10.7373 15.8545 10.4092 16.1689 9.99902 16.1689C9.5957 16.1689 9.26074 15.8545 9.26074 15.4443V9.41504C8.59766 9.12793 8.13281 8.46484 8.13281 7.70605C8.13281 6.94043 8.59766 6.27734 9.26074 5.99023V4.11035C9.26074 3.72754 9.60254 3.39941 9.99902 3.39941C10.4023 3.39941 10.7373 3.7207 10.7373 4.11035V5.99707C11.4004 6.28418 11.8652 6.94043 11.8652 7.70605C11.8652 8.47168 11.4004 9.12793 10.7373 9.41504V15.4443ZM15.5498 15.4648C15.5498 15.8545 15.2217 16.1689 14.8115 16.1689C14.4082 16.1689 14.0732 15.8545 14.0732 15.4648V13.5371C13.4102 13.2432 12.9453 12.5869 12.9453 11.8213C12.9453 11.0625 13.4102 10.3994 14.0732 10.1123V4.13086C14.0732 3.72754 14.415 3.39941 14.8115 3.39941C15.2148 3.39941 15.5498 3.7207 15.5498 4.13086V10.1123C16.2129 10.3994 16.6777 11.0557 16.6777 11.8213C16.6777 12.5869 16.2129 13.25 15.5498 13.5371V15.4648ZM9.125 7.70605C9.125 8.20508 9.51465 8.58105 10 8.58105C10.499 8.58105 10.875 8.20508 10.875 7.70605C10.875 7.2207 10.499 6.83105 10 6.83105C9.51465 6.83105 9.125 7.2207 9.125 7.70605ZM14.8125 12.6963C14.3271 12.6963 13.9375 12.3203 13.9375 11.8213C13.9375 11.3359 14.3271 10.9463 14.8125 10.9463C15.3115 10.9463 15.6875 11.3359 15.6875 11.8213C15.6875 12.3203 15.3115 12.6963 14.8125 12.6963ZM4.3125 11.8213C4.3125 12.3203 4.70215 12.6963 5.1875 12.6963C5.68652 12.6963 6.0625 12.3203 6.0625 11.8213C6.0625 11.3359 5.68652 10.9463 5.1875 10.9463C4.70215 10.9463 4.3125 11.3359 4.3125 11.8213Z" fill="currentColor"/>
</svg>
