<svg width="24" height="24" viewBox="0 0 24 24" fill="none" xmlns="http://www.w3.org/2000/svg">
<path fill-rule="evenodd" clip-rule="evenodd" d="M12 0C5.37258 0 0 5.37258 0 12C0 18.6274 5.37258 24 12 24C18.6274 24 24 18.6274 24 12C24 5.37258 18.6274 0 12 0ZM15.2467 7.74087C14.7233 7.1446 13.9808 6.74708 13.0189 6.54832V5.14282H10.9822V6.48444C10.5578 6.55542 10.1547 6.669 9.77283 6.82516C9.39094 6.98133 9.05855 7.19429 8.77566 7.46403C8.49278 7.71957 8.26647 8.03191 8.09674 8.40103C7.92701 8.75595 7.84214 9.17477 7.84214 9.65746V9.78524C7.84214 10.6796 8.11796 11.3611 8.66958 11.8296C9.23535 12.2981 10.0062 12.6175 10.9822 12.7879V15.0878C10.671 14.9458 10.4518 14.7542 10.3245 14.5128C10.1972 14.2715 10.1335 13.9875 10.1335 13.661V13.3629H7.71484V13.7888C7.71484 14.2147 7.77849 14.6335 7.90579 15.0452C8.03309 15.4427 8.22404 15.8048 8.47863 16.1313C8.74738 16.4578 9.08684 16.7418 9.49702 16.9831C9.90721 17.2103 10.4023 17.3735 10.9822 17.4729V18.8571H13.0189V17.5368C14.0515 17.409 14.8506 17.047 15.4164 16.4507C15.9963 15.8544 16.2863 15.0807 16.2863 14.1295V14.0017C16.2863 12.2129 15.1972 11.1694 13.0189 10.8713V8.95471C13.2311 9.06829 13.3796 9.21026 13.4645 9.38062C13.5635 9.53679 13.613 9.70005 13.613 9.87042V10.1686H16.0317V9.87042C16.0317 9.04699 15.77 8.33714 15.2467 7.74087ZM13.7191 13.5971C13.8181 13.7675 13.8676 13.9591 13.8676 14.1721C13.8676 14.3709 13.804 14.5625 13.6767 14.7471C13.5635 14.9316 13.3443 15.0736 13.0189 15.173V13.1499C13.3867 13.2635 13.6201 13.4126 13.7191 13.5971ZM10.3881 10.1686C10.3032 10.0266 10.2608 9.85622 10.2608 9.65746C10.2608 9.5013 10.3174 9.35223 10.4305 9.21026C10.5437 9.05409 10.7276 8.93342 10.9822 8.84824V10.5306C10.671 10.417 10.473 10.2963 10.3881 10.1686Z" fill="#00B8B9"/>
</svg>
