<svg width="16" height="15" viewBox="0 0 16 15" fill="none" xmlns="http://www.w3.org/2000/svg">
<path d="M8.82275 13.8579C8.53711 14.041 8.21484 14.2168 7.99512 14.2168C7.78271 14.2168 7.45312 14.041 7.1748 13.8579C3.11719 11.2212 0.480469 8.11572 0.480469 4.97363C0.480469 2.19043 2.41406 0.278809 4.83838 0.278809C6.25928 0.278809 7.35791 0.92334 7.99512 1.86816C8.64697 0.916016 9.73096 0.278809 11.1592 0.278809C13.5762 0.278809 15.5171 2.19043 15.5171 4.97363C15.5171 8.11572 12.8804 11.2212 8.82275 13.8579ZM7.87061 12.2905C7.9292 12.3271 7.97314 12.3491 7.99512 12.3491C8.02441 12.3491 8.06836 12.3271 8.12695 12.2905C11.2324 10.2178 13.7593 7.42725 13.7593 4.96631C13.7593 3.19385 12.5728 1.98535 10.9907 1.98535C9.72363 1.98535 9.04248 2.73975 8.55908 3.40625C8.34668 3.69922 8.20752 3.81641 7.99512 3.81641C7.79004 3.81641 7.63623 3.69922 7.43115 3.40625C6.97705 2.73242 6.27393 1.98535 5.00684 1.98535C3.4248 1.98535 2.23828 3.19385 2.23828 4.96631C2.23828 7.42725 4.76514 10.2178 7.87061 12.2905Z" fill="currentColor"/>
</svg>
