<svg width="20" height="20" viewBox="0 0 20 20" fill="none" xmlns="http://www.w3.org/2000/svg">
<g opacity="0.4">
<path fill-rule="evenodd" clip-rule="evenodd" d="M11.2891 16.1484C10.9746 16.8252 10.6055 17.4199 9.95605 17.4199C9.18359 17.4199 8.91699 16.6816 8.91699 15.7861L8.90332 10.9805C8.90332 10.8711 8.8623 10.8301 8.75293 10.8301L3.94727 10.8164C3.02441 10.8164 2.30664 10.5361 2.30664 9.77051C2.30664 9.11426 2.92871 8.73828 3.58496 8.4375L14.748 3.30371C15.0898 3.14648 15.3975 3.05762 15.6641 3.05762C16.2314 3.05762 16.6758 3.49512 16.6758 4.06934C16.6758 4.33594 16.5869 4.64355 16.4297 4.97852L11.2891 16.1484ZM10.3316 10.1123L10.2974 14.7129C10.2974 14.7812 10.3726 14.7949 10.4068 14.7266L14.8706 4.97167C14.9116 4.87597 14.8638 4.81445 14.7612 4.8623L5.00637 9.31933C4.93117 9.35351 4.95168 9.4287 5.0132 9.4287L9.60695 9.40136C10.1265 9.39452 10.3316 9.60644 10.3316 10.1123Z" fill="#E0E0FF"/>
</g>
</svg>
