<svg width="20" height="20" viewBox="0 0 20 20" fill="none" xmlns="http://www.w3.org/2000/svg">
<g opacity="0.4">
<path fill-rule="evenodd" clip-rule="evenodd" d="M9.55859 15.6836C8.06836 16.75 6.12012 17.6592 5.15625 17.6592C4.24707 17.6592 3.87793 16.8184 4.37012 16.1621C4.66406 15.7793 5.13574 15.0479 5.41602 14.5352C3.29688 13.4551 1.92969 11.4316 1.92969 9.18945C1.92969 5.58008 5.51855 2.6748 9.99609 2.6748C14.4805 2.6748 18.0693 5.58008 18.0693 9.18945C18.0693 12.9082 14.4326 15.7383 9.55859 15.6836ZM7.07031 14.3848C6.79688 14.8838 6.29785 15.5332 5.9834 15.9297C5.9082 16.0254 5.94922 16.0801 6.05859 16.0391C6.65332 15.7998 7.89062 15.0068 8.7041 14.3984C8.98438 14.1729 9.20312 14.0908 9.49707 14.0977C9.61882 14.0977 9.72704 14.0999 9.81912 14.1018C9.88731 14.1033 9.94665 14.1045 9.99609 14.1045C13.5986 14.1045 16.4697 11.8965 16.4697 9.18945C16.4697 6.47559 13.5986 4.26758 9.99609 4.26758C6.40039 4.26758 3.5293 6.47559 3.5293 9.18945C3.5293 10.9395 4.71875 12.4775 6.74902 13.4414C7.18652 13.6465 7.28223 13.9883 7.07031 14.3848Z" fill="#E0E0FF"/>
</g>
</svg>
