<svg width="24" height="24" viewBox="0 0 24 24" fill="none" xmlns="http://www.w3.org/2000/svg">
<path fill-rule="evenodd" clip-rule="evenodd" d="M19.2969 9.55469C19.7422 9.55469 20.1016 9.17969 20.1016 8.73438C20.1016 8.28125 19.75 7.91406 19.2969 7.91406H4.70312C4.25 7.91406 3.89844 8.28906 3.89844 8.73438C3.89844 9.17188 4.25781 9.55469 4.70312 9.55469H19.2969ZM19.297 13.1876C19.7423 13.1876 20.1017 12.8126 20.1017 12.3673C20.1017 11.9142 19.7501 11.547 19.297 11.547H4.70322C4.2501 11.547 3.89854 11.922 3.89854 12.3673C3.89854 12.8048 4.25791 13.1876 4.70322 13.1876H19.297ZM20.1017 16.0001C20.1017 16.4454 19.7423 16.8282 19.297 16.8282H4.70322C4.25791 16.8282 3.89854 16.4376 3.89854 16.0001C3.89854 15.5548 4.2501 15.1798 4.70322 15.1798H19.297C19.7501 15.1798 20.1017 15.547 20.1017 16.0001Z" fill="url(#paint0_linear_1021_8718)"/>
<defs>
<linearGradient id="paint0_linear_1021_8718" x1="-4.20316" y1="12.3711" x2="3.32621" y2="26.0572" gradientUnits="userSpaceOnUse">
<stop stop-color="#FF00AA"/>
<stop offset="0.501768" stop-color="#9C42F5"/>
<stop offset="1" stop-color="#5D2DE1"/>
</linearGradient>
</defs>
</svg>
