<svg width="24" height="24" viewBox="0 0 24 24" fill="none" xmlns="http://www.w3.org/2000/svg">
<path fill-rule="evenodd" clip-rule="evenodd" d="M19.2969 9.55469C19.7422 9.55469 20.1016 9.17969 20.1016 8.73438C20.1016 8.28125 19.75 7.91406 19.2969 7.91406H4.70312C4.25 7.91406 3.89844 8.28906 3.89844 8.73438C3.89844 9.17188 4.25781 9.55469 4.70312 9.55469H19.2969ZM19.2969 13.1875C19.7422 13.1875 20.1016 12.8125 20.1016 12.3672C20.1016 11.9141 19.75 11.5469 19.2969 11.5469H4.70312C4.25 11.5469 3.89844 11.9219 3.89844 12.3672C3.89844 12.8047 4.25781 13.1875 4.70312 13.1875H19.2969ZM20.1016 16C20.1016 16.4453 19.7422 16.8281 19.2969 16.8281H4.70312C4.25781 16.8281 3.89844 16.4375 3.89844 16C3.89844 15.5547 4.25 15.1797 4.70312 15.1797H19.2969C19.75 15.1797 20.1016 15.5469 20.1016 16Z" fill="white"/>
</svg>
