<svg width="24" height="24" viewBox="0 0 24 24" fill="none" xmlns="http://www.w3.org/2000/svg">
<path fill-rule="evenodd" clip-rule="evenodd" d="M15.2447 9.37939C15.2447 11.3203 13.8018 12.895 12.0074 12.895C10.2056 12.895 8.77005 11.3276 8.76272 9.38672C8.7554 7.48975 10.2202 5.94434 12.0074 5.94434C13.7945 5.94434 15.2447 7.4751 15.2447 9.37939ZM10.2276 9.38672C10.2276 10.5732 11.0406 11.4814 12.0074 11.4814C12.9742 11.4814 13.7798 10.5586 13.7798 9.37939C13.7798 8.23682 12.9742 7.35791 12.0074 7.35791C11.0406 7.35791 10.2203 8.25146 10.2276 9.38672ZM16.541 19.7285C17.8374 19.7285 18.4746 19.3037 18.4746 18.3955C18.4746 16.3081 15.8892 13.7007 12 13.7007C8.11084 13.7007 5.52539 16.3081 5.52539 18.3955C5.52539 19.3037 6.1626 19.7285 7.46631 19.7285H16.541ZM7.10742 18.1392C7.10742 18.2637 7.16602 18.3149 7.32715 18.3149H16.6729C16.834 18.3149 16.8926 18.2637 16.8926 18.1392C16.8926 17.0845 15.1201 15.1143 12 15.1143C8.87988 15.1143 7.10742 17.0845 7.10742 18.1392Z" fill="white"/>
</svg>
