<svg width="20" height="20" viewBox="0 0 20 20" fill="none" xmlns="http://www.w3.org/2000/svg">
<path fill-rule="evenodd" clip-rule="evenodd" d="M16.584 15.4307C16.584 16.0869 16.085 16.6064 15.4219 16.6064C15.1074 16.6064 14.7998 16.4971 14.5742 16.2715L11.7578 13.4551C10.9238 13.9746 9.93945 14.2754 8.89355 14.2754C5.88574 14.2754 3.41797 11.8076 3.41797 8.7998C3.41797 5.78516 5.88574 3.32422 8.89355 3.32422C11.9014 3.32422 14.3623 5.79199 14.3623 8.7998C14.3623 9.90723 14.0342 10.9395 13.46 11.8008L16.249 14.5967C16.4814 14.8291 16.584 15.123 16.584 15.4307ZM5.07812 8.7998C5.07812 10.8916 6.79395 12.6074 8.89258 12.6074C10.9844 12.6074 12.7002 10.8916 12.7002 8.7998C12.7002 6.70801 10.9844 4.99219 8.89258 4.99219C6.79395 4.99219 5.07812 6.70801 5.07812 8.7998Z" fill="#E0E0FF" fill-opacity="0.6"/>
</svg>
