<svg width="32" height="32" viewBox="0 0 32 32" fill="none" xmlns="http://www.w3.org/2000/svg">
<path fill-rule="evenodd" clip-rule="evenodd" d="M14.9956 25.5255C14.9956 26.531 15.7527 27.3 16.7583 27.3C17.4563 27.3 18.0004 27.0161 18.6629 26.4009L28.0561 17.6229C28.5294 17.1733 28.7305 16.6173 28.7305 16.1441C28.7305 15.659 28.5412 15.1267 28.068 14.6771L18.6629 5.94642C17.9295 5.2721 17.4563 5 16.7819 5C15.7527 5 14.9956 5.80446 14.9956 6.81003V10.8441H14.7471C6.84453 10.8441 2.9997 15.9193 2.9997 24.3898C2.9997 26.2471 3.67402 27.1935 4.65593 27.1935C5.36575 27.1935 5.96909 26.9333 6.48962 25.9987C8.16951 22.8637 10.6184 21.5032 14.7471 21.5032H14.9956V25.5255ZM17.7631 23.7509C17.6921 23.8219 17.6329 23.8456 17.562 23.8456C17.4555 23.8456 17.3845 23.7627 17.3845 23.6444V19.4329C17.3845 19.1608 17.2662 19.0425 16.9941 19.0425H15.5508C10.2627 19.0425 6.89109 20.5804 5.47146 23.5261C5.43597 23.5971 5.41231 23.6326 5.36499 23.6326C5.31767 23.6326 5.28218 23.5971 5.28218 23.5261C5.43597 17.824 8.29889 13.2575 15.5508 13.2575H16.9941C17.2662 13.2575 17.3845 13.1392 17.3845 12.8789V8.58455C17.3845 8.46625 17.4555 8.39526 17.562 8.39526C17.6448 8.39526 17.7039 8.43075 17.7631 8.47808L25.5829 15.9311C25.6657 16.0139 25.7012 16.0731 25.7012 16.1441C25.7012 16.2151 25.6775 16.2742 25.5829 16.3688L17.7631 23.7509Z" fill="#E0E0FF" fill-opacity="0.4"/>
</svg>
