<svg width="20" height="20" viewBox="0 0 20 20" fill="none" xmlns="http://www.w3.org/2000/svg">
<path fill-rule="evenodd" clip-rule="evenodd" d="M16.4531 7.26172C16.8633 7.26172 17.1777 6.92676 17.1777 6.52344C17.1777 6.11328 16.8633 5.78516 16.4531 5.78516H3.72461C3.32129 5.78516 3 6.12012 3 6.52344C3 6.91992 3.32129 7.26172 3.72461 7.26172H16.4531ZM13.6846 10.8027C14.0947 10.8027 14.4092 10.4609 14.4092 10.0645C14.4092 9.6543 14.0947 9.32617 13.6846 9.32617H3.72461C3.32129 9.32617 3 9.66113 3 10.0645C3 10.4609 3.32129 10.8027 3.72461 10.8027H13.6846ZM11.6611 13.6055C11.6611 14.002 11.3467 14.3438 10.9365 14.3438H3.72461C3.32129 14.3438 3 13.9951 3 13.6055C3 13.2021 3.32129 12.8604 3.72461 12.8604H10.9365C11.3467 12.8604 11.6611 13.1953 11.6611 13.6055Z" fill="white"/>
</svg>
