<svg width="24" height="24" viewBox="0 0 24 24" fill="none" xmlns="http://www.w3.org/2000/svg">

	<path fill-rule="evenodd" clip-rule="evenodd"
		  d="M12 22C17.5228 22 22 17.5228 22 12C22 6.47715 17.5228 2 12 2C6.47715 2 2 6.47715 2 12C2 17.5228 6.47715 22 12 22ZM8.69643 11.084C7.69469 11.5214 6.66542 11.9708 5.72425 12.4892L5.72418 12.4892C5.23273 12.8491 5.88597 13.1036 6.49875 13.3423C6.59617 13.3803 6.69257 13.4178 6.78318 13.4553C6.85859 13.4785 6.93527 13.5029 7.01297 13.5277C7.6945 13.7448 8.45445 13.9869 9.1161 13.6227C10.203 12.9984 11.2287 12.2765 12.2537 11.5552C12.5895 11.3189 12.9252 11.0826 13.2629 10.8499C13.2788 10.8398 13.2966 10.8282 13.3161 10.8155C13.6039 10.629 14.251 10.2096 14.0116 10.7875C13.4456 11.4065 12.8393 11.9545 12.2297 12.5054C11.8189 12.8767 11.4066 13.2494 11.0041 13.646C10.6535 13.9309 10.2895 14.5037 10.6821 14.9025C11.5862 15.5355 12.5044 16.1531 13.4222 16.7703C13.7208 16.9712 14.0194 17.172 14.3174 17.3733C14.8225 17.7766 15.6119 17.4504 15.7229 16.8202C15.7723 16.5303 15.8219 16.2405 15.8715 15.9506C16.1454 14.3486 16.4195 12.7461 16.6617 11.139C16.6946 10.8869 16.7319 10.6348 16.7692 10.3826C16.8597 9.77126 16.9502 9.15922 16.9785 8.54463C16.9056 7.93132 16.1619 8.06617 15.7481 8.20408C13.6209 9.0135 11.515 9.88292 9.41742 10.7677C9.17979 10.8729 8.93892 10.9781 8.69643 11.084Z"
		  fill="currentColor"/>

</svg>
