<svg width="24" height="24" viewBox="0 0 24 24" fill="none" xmlns="http://www.w3.org/2000/svg">

<path d="M8.28 20.1261C15.824 20.1261 19.952 13.8701 19.952 8.45412C19.952 8.27812 19.952 8.10212 19.944 7.92612C20.744 7.35012 21.44 6.62212 21.992 5.79812C21.256 6.12612 20.464 6.34212 19.632 6.44612C20.48 5.94212 21.128 5.13412 21.44 4.17412C20.648 4.64612 19.768 4.98212 18.832 5.16612C18.08 4.36612 17.016 3.87012 15.84 3.87012C13.576 3.87012 11.736 5.71012 11.736 7.97412C11.736 8.29412 11.776 8.60612 11.84 8.91012C8.432 8.74212 5.408 7.10212 3.384 4.62212C3.032 5.23012 2.832 5.93412 2.832 6.68612C2.832 8.11012 3.56 9.36612 4.656 10.1021C3.984 10.0781 3.352 9.89412 2.8 9.59012C2.8 9.60612 2.8 9.62212 2.8 9.64612C2.8 11.6301 4.216 13.2941 6.088 13.6701C5.744 13.7661 5.384 13.8141 5.008 13.8141C4.744 13.8141 4.488 13.7901 4.24 13.7421C4.76 15.3741 6.28 16.5581 8.072 16.5901C6.664 17.6941 4.896 18.3501 2.976 18.3501C2.648 18.3501 2.32 18.3341 2 18.2941C3.808 19.4461 5.968 20.1261 8.28 20.1261Z" fill="currentColor"/>

</svg>
